<svg id="Layer_3" data-name="Layer 3" xmlns="http://www.w3.org/2000/svg" viewBox="0 0 1920 1505"><defs><style>.cls-1,.cls-3{opacity:0.5;}.cls-2{fill:#a2defc;}.cls-3,.cls-4{fill:#52a5e3;}.cls-4{opacity:0.57;}.cls-5,.cls-6{fill:none;stroke-miterlimit:10;stroke-width:9px;}.cls-5{stroke:#000;}.cls-6{stroke:#1572ad;}.cls-7{fill:#3994d9;}.cls-8{font-size:155.59px;fill:#1572ad;font-family:Ebrima;letter-spacing:0.09em;}</style></defs><g class="cls-1"><polygon class="cls-2" points="1070.22 583.7 1065.33 601.31 1075.12 623.82 1056.52 602.29 1061.42 588.59 1070.22 583.7"/><polygon class="cls-2" points="1094.69 615.99 1094.69 635.56 1102.52 649.26 1102.52 660.02 1091.75 650.24 1083.92 636.54 1084.9 623.82 1094.69 615.99"/></g><polygon class="cls-3" points="1136.77 699.17 1119.15 718.74 1148.51 745.16 1214.07 784.3 1228.75 770.6 1176.89 738.31 1136.77 699.17"/><polygon class="cls-3" points="786.44 641.43 850.04 664.92 894.08 686.45 914.63 685.47 940.07 694.27 910.47 697.27 892.81 698.68 875.49 686.45 849.07 680.58 836.34 682.53 805.82 659.6 786.44 641.43"/><polygon class="cls-4" points="1079.52 650.73 1055.06 642.9 1028.63 638.01 994.38 634.09 966.49 623.82 958.66 602.29 950.84 582.72 935.18 567.06 914.14 552.38 890.65 539.66 874.02 533.79 871.57 532.81 870.1 532.81 889.68 550.42 907.17 556.82 920.99 565.1 933.71 574.89 943.5 584.67 951.72 600.85 958.66 623.82 968.45 632.62 968.38 632.29 987.29 639.03 1006.13 640.94 1030.59 643.88 1052.12 646.81 1089.31 654.64 1079.52 650.73"/><path class="cls-5" d="M671.43,581.67c.27-1.13.54-2.27.82-3.4"/><path class="cls-6" d="M730.17,454c65.7-71.86,119.18-100.79,227.52-100.79,162.4,0,294.06,131.66,294.06,294.06a293,293,0,0,1-24.63,118"/><path class="cls-5" d="M1157.32,863.22l2.21-2.06"/><path class="cls-6" d="M672.43,575.38c-5.45,24-9,50-8.81,71.92,1.53,162.4,131.66,294.07,294.07,294.07a293,293,0,0,0,199.63-78.15"/><path class="cls-6" d="M730.17,449.14l42.08,40.12,50.88,36.21,37.19,4.89s11.74,8.81,18.59,15.66,34.25,15.66,41.1,21.53,19.57,15.66,24.47,25.44,12.72,35.23,12.72,35.23l28.38,14.68,34.25,3.91s29.35,2.94,31.31,3.92,44,8.81,44,8.81l31.31,17.61a31.05,31.05,0,0,1,4.89,16.64c0,9.78-7.82,16.63-7.82,16.63l-6.85,4.89-34.25,2.94-37.19-5.87-36.21-4.89-53.82-9.79-31.31-3.91-26.43,6.85-11.74-4.9-15.66-8.8-16.63-5.88L840.75,686l-51.87-39.15-54.8-30.33-61.65-37.19"/><polyline class="cls-6" points="864.23 533.3 871.08 517.64 895.55 517.64 920.01 509.81 948.39 529.38 973.83 544.06 995.36 556.78 1019.83 563.63 1043.31 594.95 1079.52 634.09 1094.2 653.66 1094.2 659.53"/><polyline class="cls-6" points="1043.31 594.95 1050.16 572.44 1064.84 567.55 1067.78 576.36 1082.45 584.18 1094.2 611.59 1103.01 611.59 1120.62 640.94 1136.28 670.3 1131.38 685.96"/><polyline class="cls-6" points="1070.71 578.31 1056.03 590.06 1052.26 604.63"/><polyline class="cls-6" points="1094.2 611.59 1082.45 622.35 1080.5 636.05"/><polyline class="cls-6" points="1131.38 693.78 1160.74 725.1 1231.2 766.2"/><path class="cls-6" d="M843.68,685l-7.83,13.7V711.4L844.66,732s3.92,7.83,15.66,10.76,33.27,11.75,33.27,11.75l30.34,15.65L944.48,774l70.45,19.57,37.19-4.89s52.84,24.46,59.69,28.38,48,48.92,48,48.92"/><polyline class="cls-6" points="1141.17 703.57 1158.78 698.68 1173.46 704.55 1173.46 717.27 1164.7 727.5"/><path class="cls-7" d="M892.12,355.53c2.7-6,6.09-17.91,2.84-23.35-5.77-9.67-18.61-15.82-27.39-8.48-8,6.69-17.74,36.7-21.81,41.91.31-6.71-.76-18.11-5.45-21.9-8.75-7.09-22.93-8.43-28.64,1.49-3.36,5.85-4,21.11-4.65,32.86-.85-3.77-2.24-7.13-4.4-8.87-8.74-7.09-22.92-8.43-28.63,1.49-5.84,10.14-3.6,48.56-6.92,48,0,0,26.78,10.4,42,11.82,13.74,1.27,20.74-9.42,19.11-20.07-.63-4.13-4.74-8.67-9.61-12.32,8.84,2.9,20.12,6.16,28.19,6.91,13.74,1.27,20.73-9.42,19.11-20.07a9.19,9.19,0,0,0-.56-2,104,104,0,0,0,14.57,9c12.46,5.93,22.71-1.7,24.86-12.25C906.21,372.68,898.47,361,892.12,355.53Z"/><path class="cls-7" d="M942,346.68c2.69-6,6.09-17.91,2.84-23.36-5.77-9.66-18.62-15.81-27.4-8.47-9,7.5-20.13,44.34-23,42.63,0,0,21.55,19,35.4,25.59,12.46,5.94,22.71-1.69,24.86-12.24C956,363.83,948.3,352.13,942,346.68Z"/><path class="cls-7" d="M1002.74,326.65c-3.62-10.66-14.89-19.37-25-14-10.35,5.46-29,39.15-31.45,36.86,0,0,17.1,23.09,29.26,32.44,10.94,8.41,22.56,3.1,26.87-6.78,2.86-6.54-2.26-19.6-7.33-26.26C999,343.63,1004.78,332.65,1002.74,326.65Z"/><path class="cls-7" d="M1261.73,666.79c4.25,1.94,8.67,3.14,11.82,2.18,10.77-3.3,19.8-14.31,14.77-24.59-3.66-7.46-21.41-19.51-30.56-26.74,6.11,1.75,13.63,2.79,17.58.32,9.54-6,15.42-18.94,7.9-27.56-7-8-38.39-17.36-42.67-21.18.68-.94,1.29-1.87,1.8-2.75,6.35,1.57,18.72,2.75,23.49-1.43,8.46-7.43,12.19-21.17,3.38-28.48-8.26-6.85-41.1-11-45.6-14.14,6.76.71,16.87.39,20.76-3.62,7.85-8.07,10.47-22.07,1.11-28.65-8.28-5.83-38.21-7.56-45.52-10,0-.06,0-.12,0-.17,6.53-.24,18.75-2.5,22.18-7.83,6.1-9.47,5.9-23.71-4.57-28.31-9.71-4.27-41.77.56-47.53-1,6.53-1.64,15.13-5.09,17.39-9.87,4.83-10.18,2.79-24.28-8.2-27.48s-45.55,7.2-48.08,4.88c6.22-2.35,16.62-8.09,18.22-14.05,2.91-10.88-1.63-24.38-13-25.55-10-1-36.84,12-44.53,13.45a39.4,39.4,0,0,0-1.71-6.57c5.26-3.89,14.06-12.66,13.88-19-.32-11.25-8.53-22.89-19.77-20.77-9.38,1.77-29.52,19.84-37.57,24.88-.29-.71-.6-1.39-.92-2,4.77-4.48,12.49-14.21,11.57-20.48-1.62-11.14-11.13-21.75-22.06-18.33-11.16,3.5-35.58,33.25-37.6,30.55,0,0,12.63,25.81,22.89,37.21,9.23,10.25,21.62,7.14,27.65-1.79a13.9,13.9,0,0,0,1.92-6.78c3.36,7.84,7.55,16.62,11.61,22.34,8,11.26,20.64,9.61,27.67,1.45a10.85,10.85,0,0,0,1.83-3.29c1,8.67,2.51,18.7,4.84,25.56,4.42,13.07,17,15.11,26.11,9.29,3.76-2.41,6.34-8.67,7.61-15.07-.86,9.64-1.66,23.33-.34,32.33,2,13.65,14,17.92,24,13.83,6.61-2.71,12-15.65,13-24,.75-.12,1.57-.29,2.43-.48-1.3,5-7.16,28.46-7,42.09.22,13.8,11.61,19.6,22,16.83a13.34,13.34,0,0,0,5.59-3.53c-2.9,7.21-5.69,15.09-6.82,21.21-2.52,13.57,7.5,21.51,18.25,20.85,7.13-.43,16.43-10.93,20.06-18.47.5.08,1.05.16,1.62.23-2.42,4.11-14.77,25.4-18.36,38.73s5.77,22,16.54,22.24c3.47.06,7.64-2.2,11.5-5.38-5.86,7.62-13.51,18.26-17.12,26.28-5.68,12.58,2.16,22.67,12.76,24.59a9.73,9.73,0,0,0,2.43.09,99.44,99.44,0,0,0-11.37,11.25c-8.73,10.69-3.77,22.46,6,27.06,6.46,3.06,19.66-1.67,26.47-6.54.26.2.54.42.83.63-8,3.8-24.79,12.25-33.55,19.64-10.54,8.9-7.82,21.39.91,27.7,5.79,4.18,19.63,2,27.22-1.58,4.32,4.91,13.8,12.94,20.1,12.22,11.19-1.26,22.09-10.43,19-21.46C1283.93,690.05,1269.6,675.67,1261.73,666.79Zm-131-256.24.31-.12c0,.39-.14,1.09-.25,2C1130.78,411.81,1130.76,411.16,1130.72,410.55Z"/><path class="cls-7" d="M663.11,667.89C657.89,664,647,658,641,660c-10.7,3.5-19.53,14.68-14.29,24.86,4.76,9.27,31.9,25.37,36.08,30.49-6.48-1.78-17.83-3.24-22.56.49-8.84,7-13.27,20.52-4.85,28.27,5,4.57,19.7,8.59,31,11.77-3.86,0-7.44.61-9.62,2.33-8.83,7-13.26,20.52-4.84,28.27,8.61,7.92,46.58,14.2,45.26,17.3,0,0,16-23.84,20.78-38.42,4.26-13.13-4.63-22.3-15.38-23.06-4.16-.29-9.49,2.72-14.13,6.67,4.78-8,10.44-18.28,12.94-26,4.27-13.13-4.62-22.3-15.37-23.06a9.23,9.23,0,0,0-2.08.1,102.64,102.64,0,0,0,12-12.22c8.53-10.85,3.35-22.53-6.48-26.95C682.94,657.92,669.82,662.9,663.11,667.89Z"/><path class="cls-7" d="M717.28,840c-4.45,1.41-8.55,3.48-10.23,6.31-5.78,9.66-5.1,23.89,5.53,28.14,7.71,3.08,29,.12,40.59-.65-5.7,2.8-12,7.07-13.25,11.55-3.08,10.83,1.26,24.39,12.62,25.75,10.59,1.26,40.12-12.86,45.85-12.9.13,1.15.3,2.25.51,3.25-5.76,3.09-15.73,10.51-16.46,16.81-1.3,11.18,5.15,23.88,16.58,23.39,10.72-.45,37.9-19.36,43.31-20.08-5.49,4-12.77,11-13,16.6-.41,11.25,7,23.4,18.39,22,10-1.23,33.41-20,40.49-23.09a1.19,1.19,0,0,0,.08.16c-4.7,4.55-12.24,14.42-11.21,20.68,1.82,11.11,11.51,21.55,22.37,17.94,10.06-3.35,30.61-28.42,35.93-31.14-3.75,5.6-7.81,13.93-6.29,19,3.25,10.78,14.21,19.87,24.51,14.89s29-35.89,32.4-35.86c-3,5.92-6.91,17.14-4.1,22.64,5.14,10,17.56,17,26.79,10.23,8.15-6,19.32-33.58,24-39.84a39.88,39.88,0,0,0,5.68,3.73c-1.3,6.41-1.94,18.82,2.44,23.4,7.78,8.13,21.68,11.26,28.59,2.15,5.77-7.6,8.6-34.51,11.19-43.65.7.33,1.38.63,2,.89-.54,6.52.26,18.91,5.15,23,8.68,7.18,22.84,8.67,28.65-1.19,5.94-10.08,4.11-48.53,7.42-47.89,0,0-26.68-10.68-41.93-12.25-13.73-1.42-20.83,9.2-19.32,19.87a13.83,13.83,0,0,0,3.13,6.31c-7.75-3.56-16.75-7.26-23.6-8.79-13.47-3-21.76,6.72-21.5,17.49a10.88,10.88,0,0,0,.85,3.66c-6.54-5.78-14.4-12.19-20.73-15.72-12-6.73-22.77.22-25.6,10.61-1.17,4.31,1.12,10.69,4.46,16.29-5.83-7.74-14.41-18.42-21.42-24.22-10.64-8.78-22.44-3.88-27.09,5.84-3.09,6.44,1.57,19.67,6.41,26.5-.47.59-1,1.27-1.48,2-2.41-4.61-13.77-25.92-23.07-35.89s-21.75-6.76-27.62,2.28a13.32,13.32,0,0,0-1.78,6.36c-2.67-7.29-5.89-15-9.16-20.31-7.23-11.75-20-10.92-27.52-3.23-5,5.1-4.86,19.13-2.49,27.15l-1.37.92c-1-4.67-6.07-28.74-12.34-41s-19.06-12.48-27.18-5.41c-2.62,2.28-4.2,6.76-4.93,11.7-.76-9.58-2.22-22.6-4.91-31-4.23-13.13-16.81-15.36-26-9.68a9.52,9.52,0,0,0-1.86,1.56,99.85,99.85,0,0,0,.9-16c-.69-13.79-12.26-19.2-22.58-16.08-6.83,2.07-13.46,14.43-15.25,22.6l-1,.09c3.36-8.15,10.18-25.71,11.72-37.06,1.86-13.68-8.53-21.12-19.24-20-7.1.78-15.88,11.72-19.14,19.43-6.49-.75-18.91-.35-23.11,4.41-7.44,8.44-9.39,22.55.28,28.67C685.21,837.62,705.48,838.69,717.28,840Zm269,102.27-.15.29L985,940.88C985.4,941.37,985.84,941.84,986.28,942.27Z"/><text class="cls-8" transform="translate(563.69 1160.24)">ALETCARE</text><polyline class="cls-3" points="823.62 525.96 770.29 493.18 727.72 451.59 718.91 470.18 762.95 509.32 823.62 532.81"/><polygon class="cls-3" points="918.54 516.17 980.19 564.12 1034.99 615.99 1061.49 644.96 1089.8 655.13 1043.8 598.37 1017.38 568.04 981.17 553.36 918.54 516.17"/></svg>